<?xml version="1.0" standalone="no"?>
<!DOCTYPE svg PUBLIC "-//W3C//DTD SVG 1.1//EN" "http://www.w3.org/Graphics/SVG/1.1/DTD/svg11.dtd" >
<svg xmlns="http://www.w3.org/2000/svg">
<metadata>
This is a custom SVG webfont generated by Font Squirrel.
Copyright   :  1993 Tobias FrereJones Designed by Tobias FrereJones Produced by The Font Bureau Inc 
Foundry     : Tobias FrereJones Designed by Tobias FrereJones Produced by The Font Bureau Inc
</metadata>
<defs>
<font id="InterstateRegular" horiz-adv-x="1462" >
<font-face units-per-em="2048" ascent="1638" descent="-410" />
<missing-glyph horiz-adv-x="593" />
<glyph unicode=" "  horiz-adv-x="593" />
<glyph unicode="&#x09;" horiz-adv-x="593" />
<glyph unicode="&#xa0;" horiz-adv-x="593" />
<glyph unicode="!" horiz-adv-x="696" d="M174 151.5q0 69.5 52.5 122t122 52.5t121.5 -52.5t52 -122t-52 -122t-121.5 -52.5t-122 52.5t-52.5 122zM205 844v590h287v-590l-48 -393h-192z" />
<glyph unicode="&#x22;" horiz-adv-x="1081" d="M117 1434h338l-72 -670h-195zM627 1434h338l-72 -670h-195z" />
<glyph unicode="#" horiz-adv-x="1515" d="M102 287v235h246v389h-246v236h246v287h250v-287h320v287h249v-287h246v-236h-246v-389h246v-235h-246v-287h-249v287h-320v-287h-250v287h-246zM598 522h320v389h-320v-389z" />
<glyph unicode="$" horiz-adv-x="1341" d="M109 248l206 184q141 -164 367 -164q131 0 190.5 33t59.5 113q0 72 -61.5 110.5t-258.5 83.5q-111 27 -183.5 54.5t-138 75.5t-96 122t-30.5 176q0 156 102.5 260.5t270.5 137.5v204h286v-206q211 -39 375 -211l-207 -201q-143 147 -325 147q-205 0 -205 -118 q0 -66 56 -98.5t233 -73.5q82 -18 138 -36t126.5 -53.5t112.5 -78.5t72 -114t30 -161q0 -375 -406 -436v-203h-286v203q-291 45 -428 250z" />
<glyph unicode="%" horiz-adv-x="2045" d="M78 1008q0 205 104.5 326.5t274.5 121.5q172 0 274.5 -120.5t102.5 -323.5q0 -201 -108 -324t-273.5 -123t-270 120t-104.5 323zM307 1012q0 -258 150 -258q72 0 109.5 67.5t37.5 186.5q0 258 -149 258q-147 0 -148 -254zM459 0l878 1434h248l-878 -1434h-248zM1212 420 q0 205 104.5 326.5t274.5 121.5q172 0 274.5 -120.5t102.5 -323.5q0 -201 -107.5 -324t-273.5 -123t-270.5 120t-104.5 323zM1442 424q0 -258 149 -258q72 0 110 67.5t38 186.5q0 258 -150 258q-147 0 -147 -254z" />
<glyph unicode="&#x26;" horiz-adv-x="1433" d="M84 358q0 143 74.5 241.5t218.5 170.5l-37 41q-125 139 -125 291q0 170 119 262t307 92q125 0 221 -36t207 -113l-137 -207q-135 102 -299 102q-63 0 -99 -24.5t-36 -69.5q0 -66 75 -156l396 -450q47 96 100 237l231 -73q-70 -217 -161 -359l270 -307h-328l-108 117 q-170 -139 -418 -140q-225 0 -348 95.5t-123 285.5zM426 272q55 -41 162 -41q133 1 221 64l-281 307q-157 -83 -157 -217q0 -72 55 -113z" />
<glyph unicode="'" horiz-adv-x="581" d="M117 1434h348l-72 -670h-205z" />
<glyph unicode="(" horiz-adv-x="757" d="M131 614q0 268 89 463t265 389l185 -127q-244 -315 -244 -714q0 -227 62.5 -397t181.5 -326l-185 -127q-170 188 -262 382.5t-92 456.5z" />
<glyph unicode=")" horiz-adv-x="757" d="M88 -98q244 315 244 714q0 227 -62.5 397.5t-181.5 325.5l184 127q170 -188 262.5 -382.5t92.5 -456.5q0 -268 -89 -463t-266 -389z" />
<glyph unicode="*" horiz-adv-x="1024" d="M68 852l288 131l-288 133l106 187l250 -170l-21 301h218l-23 -299l250 170l108 -187l-294 -133l294 -135l-108 -186l-250 167l23 -299h-218l21 304l-250 -168z" />
<glyph unicode="+" horiz-adv-x="1255" d="M113 571v267h374v389h281v-389h375v-267h-375v-389h-281v389h-374z" />
<glyph unicode="," horiz-adv-x="557" d="M102 -258l31 604h334l-172 -604h-193z" />
<glyph unicode="-" horiz-adv-x="833" d="M123 602v283h588v-283h-588z" />
<glyph unicode="." horiz-adv-x="557" d="M86 170q0 78 57.5 135t135 57t135 -57t57.5 -135t-57.5 -135.5t-135 -57.5t-135 57.5t-57.5 135.5z" />
<glyph unicode="/" horiz-adv-x="962" d="M8 -184l668 1802h278l-667 -1802h-279z" />
<glyph unicode="0" horiz-adv-x="1409" d="M102 717q0 336 158 537.5t444.5 201.5t444.5 -200.5t158 -534.5q0 -336 -159 -540t-445.5 -204t-443.5 202t-157 538zM393 721q0 -205 78 -334t233.5 -129t233.5 127t78 332t-78 332t-236 127q-156 0 -232.5 -125t-76.5 -330z" />
<glyph unicode="1" horiz-adv-x="788" d="M80 1036v211q252 12 293 187h237v-1434h-284v1036h-246z" />
<glyph unicode="2" horiz-adv-x="1398" d="M123 1219q232 237 579 237h3q258 0 395 -104.5t137 -307.5q0 -113 -44 -194.5t-119 -134.5t-206 -115q-184 -84 -271 -161t-108 -163h762v-276h-1122q2 143 39 263t94 207t146.5 162t177.5 125t202 101q162 70 162 172q0 61 -57 103.5t-178 42.5q-227 0 -408 -172z" />
<glyph unicode="3" horiz-adv-x="1320" d="M43 252l217 176q162 -170 377 -170q276 0 276 182q0 164 -211 164h-170v281h154q168 0 168 145q0 61 -57.5 103.5t-182.5 42.5q-162 0 -280 -121l-209 190q104 111 220 161t273 50q231 0 379 -105.5t148 -299.5q0 -109 -47 -182.5t-119 -110.5q90 -33 157.5 -110 t67.5 -204q0 -227 -159.5 -347t-434.5 -120q-338 0 -567 275z" />
<glyph unicode="4" horiz-adv-x="1423" d="M90 293v258l760 883h301v-875h188v-266h-188v-293h-277v293h-784zM414 555q20 0 129.5 2t154.5 2h176v234q0 45 3.5 167.5t3.5 145.5q-61 -84 -127 -162l-205 -239q-78 -94 -135 -150z" />
<glyph unicode="5" horiz-adv-x="1368" d="M104 131l140 244q213 -121 420 -121q147 0 227 60.5t80 174.5q0 106 -67.5 159.5t-176.5 53.5q-160 0 -283 -86l-272 101l49 717h955v-277h-691l-16 -248q121 66 301 66q233 0 362.5 -132t129.5 -343q0 -252 -163 -387.5t-435 -135.5q-313 0 -560 154z" />
<glyph unicode="6" horiz-adv-x="1357" d="M96 557q0 121 28 238.5t98.5 239.5t177 213t277.5 149.5t384 58.5v-278q-500 0 -625 -336q135 90 328 90q225 0 365.5 -118t140.5 -345q0 -231 -170 -361.5t-434 -130.5q-254 0 -412 145.5t-158 434.5zM393 457q0 -100 74 -156.5t211 -56.5q141 0 221 57.5t80 157.5 q0 213 -287 213q-299 0 -299 -215z" />
<glyph unicode="7" horiz-adv-x="1292" d="M90 1161v273h1075v-277q-475 -465 -475 -1157h-293q0 678 422 1161h-729z" />
<glyph unicode="8" horiz-adv-x="1437" d="M119 430q0 250 227 348q-166 90 -166 252q0 205 151.5 315.5t387.5 110.5q227 0 382.5 -107.5t155.5 -306.5q0 -172 -165 -264q227 -105 227 -334q0 -217 -161 -342t-439.5 -125t-439 121t-160.5 332zM406 436q0 -96 87 -151.5t226 -55.5q147 0 230 53.5t83 151.5 q0 205 -313 205q-158 0 -235.5 -53.5t-77.5 -149.5zM467 1038q0 -72 65.5 -118t186.5 -46q127 0 189.5 44t62.5 118q0 76 -59.5 124t-192.5 48q-127 0 -189.5 -48t-62.5 -122z" />
<glyph unicode="9" horiz-adv-x="1357" d="M88 965q0 231 170 361t434 130q254 0 412 -145t158 -434q0 -121 -28 -239t-98.5 -240t-177 -213t-277.5 -149.5t-384 -58.5v279q500 0 625 336q-135 -90 -328 -90q-225 0 -365.5 117.5t-140.5 345.5zM379 975q0 -213 287 -213q299 0 299 215q0 100 -73 156.5t-212 56.5 q-141 0 -221 -57.5t-80 -157.5z" />
<glyph unicode=":" horiz-adv-x="557" d="M86 170q0 78 57.5 135t135 57t135 -57t57.5 -135t-57.5 -135.5t-135 -57.5t-135 57.5t-57.5 135.5zM86 905q0 78 57.5 135.5t135 57.5t135 -57.5t57.5 -135.5t-57.5 -135t-135 -57t-135 57t-57.5 135z" />
<glyph unicode=";" horiz-adv-x="557" d="M86 905q0 78 57.5 135.5t135 57.5t135 -57.5t57.5 -135.5t-57.5 -135t-135 -57t-135 57t-57.5 135zM88 -258l31 604h334l-172 -604h-193z" />
<glyph unicode="&#x3c;" horiz-adv-x="921" d="M117 608v193l678 551v-353l-383 -292l383 -295v-355z" />
<glyph unicode="=" horiz-adv-x="1255" d="M164 330v264h928v-264h-928zM164 815v264h928v-264h-928z" />
<glyph unicode="&#x3e;" horiz-adv-x="921" d="M127 57v353l383 292l-383 295v355l678 -551v-193z" />
<glyph unicode="?" horiz-adv-x="1196" d="M45 1219q226 237 540 237h3q244 0 387 -105.5t143 -312.5q0 -240 -207 -338q-129 -61 -173 -110t-48 -139h-280q0 154 61 250t227 171q78 35 105.5 67t27.5 87q0 150 -243 150q-197 0 -359 -172zM377 151.5q0 69.5 51 122t123 52.5t123 -52.5t51 -122t-51 -122 t-123 -52.5t-123 52.5t-51 122z" />
<glyph unicode="@" horiz-adv-x="1712" d="M117 716.5q0 321.5 209 530.5t530.5 209t530 -210t208.5 -509q0 -219 -82.5 -320.5t-226.5 -101.5q-158 0 -239 113q-109 -115 -263 -115q-121 0 -208 74t-87 209q0 125 90.5 193.5t231.5 68.5q86 0 160 -39v51q0 49 -31 80t-90 31q-115 0 -219 -53l-76 135 q135 80 295 80q145 0 233 -73t88 -204v-293q0 -137 127 -137q178 0 179 303q0 248 -178.5 424t-442.5 176q-268 0 -444 -176t-176 -444t176 -445.5t444 -177.5q145 0 266 60l49 -109q-154 -70 -315 -70q-322 0 -530.5 209t-208.5 530.5zM688 596q0 -49 32 -81t97 -32 q109 0 154 80v105q-63 37 -154 37q-129 0 -129 -109z" />
<glyph unicode="A" horiz-adv-x="1536" d="M82 0l549 1434h278l545 -1434h-315l-113 319h-524l-113 -319h-307zM600 592h328l-92 260q-55 160 -72 223q-16 -63 -72 -223z" />
<glyph unicode="B" horiz-adv-x="1454" d="M184 0v1434h658q211 0 332.5 -98.5t121.5 -280.5q0 -186 -151 -279q201 -90 201 -313q0 -221 -137.5 -342t-372.5 -121h-652zM465 272h381q102 0 153.5 49.5t51.5 137.5q0 184 -205 184h-381v-371zM465 897h379q162 0 162 135q0 137 -177 137h-364v-272z" />
<glyph unicode="C" horiz-adv-x="1372" d="M109 717q0 328 178 533.5t458 205.5q371 0 525 -317l-266 -123q-81 155 -261 155h-2q-158 0 -248 -124.5t-90 -329.5q0 -199 91.5 -327t248.5 -128q94 0 159 43t122 139l242 -143q-158 -324 -531 -324q-283 0 -454.5 201t-171.5 539z" />
<glyph unicode="D" horiz-adv-x="1447" d="M184 0v1434h449q330 0 521.5 -172t191.5 -545q0 -147 -41 -268t-111 -203t-164 -138.5t-199.5 -82t-218.5 -25.5h-428zM471 279h141q219 0 329 116.5t110 321.5q0 223 -102.5 330.5t-325.5 107.5h-152v-876z" />
<glyph unicode="E" horiz-adv-x="1331" d="M184 0v1434h996v-281h-709v-248h412v-278h-412v-346h739v-281h-1026z" />
<glyph unicode="F" horiz-adv-x="1280" d="M184 0v1434h1026v-281h-739v-270h432v-279h-432v-604h-287z" />
<glyph unicode="G" horiz-adv-x="1429" d="M109 717q0 328 178 533.5t458 205.5q211 0 340 -91t203 -267l-272 -113q-45 92 -105.5 139t-169.5 47q-158 0 -248 -124.5t-90 -329.5q0 -203 91.5 -331t248.5 -128q252 0 281 217h-227v268h514v-188q0 -270 -160 -424t-416 -154q-283 0 -454.5 201t-171.5 539z" />
<glyph unicode="H" horiz-adv-x="1529" d="M184 0v1434h287v-549h588v549h287v-1434h-287v602h-588v-602h-287z" />
<glyph unicode="I" horiz-adv-x="696" d="M205 0v1434h287v-1434h-287z" />
<glyph unicode="J" horiz-adv-x="1331" d="M66 401l280 76q43 -113 104.5 -164t163.5 -51q256 0 256 328v844h287v-836q0 -291 -135 -456t-408 -165q-209 0 -351 115t-197 309z" />
<glyph unicode="K" horiz-adv-x="1474" d="M184 0v1434h287v-408q0 -137 -4 -227q23 37 113 145l401 490h346l-420 -496l527 -938h-344l-390 692l-229 -270v-422h-287z" />
<glyph unicode="L" horiz-adv-x="1269" d="M184 0v1434h287v-1151h719v-283h-1006z" />
<glyph unicode="M" horiz-adv-x="1710" d="M184 0v1434h277l299 -650q55 -119 98 -239q39 111 96 239l289 650h283v-1434h-287v526q0 41 2 166t2 150q-39 -100 -100 -238l-291 -637l-291 637q-61 137 -100 238q0 -25 2 -150t2 -166v-526h-281z" />
<glyph unicode="N" horiz-adv-x="1529" d="M184 0v1434h275l508 -758q82 -127 100 -162q0 23 -2 146.5t-2 166.5v607h283v-1434h-256l-527 782q-82 127 -100 162q0 -23 2 -146.5t2 -166.5v-631h-283z" />
<glyph unicode="O" d="M109 717q0 332 166.5 535.5t455.5 203.5t456 -203.5t167 -535.5t-167 -536t-456 -204t-455.5 204t-166.5 536zM403 717q0 -205 81 -330t247 -125t247 125t81 330t-81 329.5t-247 124.5t-247 -124.5t-81 -329.5z" />
<glyph unicode="P" horiz-adv-x="1392" d="M184 0v1434h627q215 0 354.5 -118t139.5 -337q0 -238 -141.5 -354.5t-377.5 -116.5h-315v-508h-287zM471 786h334q205 1 205 187q0 182 -209 182h-330v-369z" />
<glyph unicode="Q" d="M109 717q0 332 166.5 535.5t455.5 203.5t456 -203.5t167 -535.5q0 -350 -195 -551l107 -156l-219 -143l-103 149q-96 -39 -213 -39q-289 0 -455.5 204t-166.5 536zM403 717q0 -209 84 -339t250 -130q18 0 47 4l-96 143l219 144l92 -138q60 105 60 316q0 205 -81 329.5 t-247 124.5t-247 -124.5t-81 -329.5z" />
<glyph unicode="R" d="M184 0v1434h668q215 0 354.5 -118t139.5 -337q0 -313 -275 -422l275 -557h-330l-256 516h-289v-516h-287zM471 786h375q205 1 205 187q0 182 -205 182h-375v-369z" />
<glyph unicode="S" horiz-adv-x="1353" d="M115 238l207 184q141 -164 366 -164q129 0 189.5 37t60.5 119q0 72 -61.5 110.5t-258.5 83.5q-111 27 -183.5 54.5t-138 75.5t-96 122t-30.5 176q0 190 146.5 305t365.5 115q307 0 522 -225l-207 -201q-143 147 -325 148q-106 0 -155.5 -38t-49.5 -91q0 -66 56.5 -98.5 t232.5 -73.5q82 -18 138 -36t127 -53.5t113 -78.5t71.5 -114t29.5 -161q0 -213 -140.5 -335t-422.5 -122q-178 0 -326.5 70t-230.5 191z" />
<glyph unicode="T" horiz-adv-x="1294" d="M92 1151v283h1110v-283h-411v-1151h-287v1151h-412z" />
<glyph unicode="U" horiz-adv-x="1509" d="M174 629v805h287v-801q0 -172 78.5 -273.5t214.5 -101.5q137 0 216 99.5t79 271.5v805h286v-801q0 -311 -153.5 -483.5t-427.5 -172.5q-264 0 -422 172.5t-158 479.5z" />
<glyph unicode="V" d="M82 1434h317l271 -830q39 -119 67 -235q25 106 66 235l264 830h313l-510 -1434h-278z" />
<glyph unicode="W" horiz-adv-x="1804" d="M102 1434h299l125 -699q25 -143 35 -235q16 100 49 235l168 699h250l170 -699q33 -135 49 -235q10 102 35 235l125 699h295l-299 -1434h-281l-176 737q-33 135 -49 246q-12 -100 -47 -246l-180 -737h-269z" />
<glyph unicode="X" horiz-adv-x="1437" d="M92 0l455 733l-434 701h342l108 -185q96 -162 156 -280q55 113 155 280l109 185h342l-436 -701l457 -733h-342l-130 217q-96 162 -155 281q-37 -78 -156 -281l-129 -217h-342z" />
<glyph unicode="Y" d="M45 1434h330l203 -340q96 -162 155 -281q55 113 156 281l203 340h325l-543 -867v-567h-286v561z" />
<glyph unicode="Z" horiz-adv-x="1409" d="M139 0v254l617 735q98 121 164 187q-115 -4 -291 -5h-449v263h1080v-254l-611 -736q-98 -121 -164 -186q115 4 291 4h494v-262h-1131z" />
<glyph unicode="[" horiz-adv-x="849" d="M195 -225v1659h526v-226h-250v-1208h250v-225h-526z" />
<glyph unicode="\" horiz-adv-x="962" d="M8 1618h279l667 -1802h-278z" />
<glyph unicode="]" horiz-adv-x="849" d="M129 0h250v1208h-250v226h526v-1659h-526v225z" />
<glyph unicode="^" horiz-adv-x="1183" d="M96 782l383 652h226l382 -652h-290l-207 381l-207 -381h-287z" />
<glyph unicode="_" horiz-adv-x="1024" d="M0 -147h1024v-236h-1024v236z" />
<glyph unicode="`" horiz-adv-x="1024" d="M205 1546h358l178 -327h-239z" />
<glyph unicode="a" horiz-adv-x="1138" d="M86 360q0 172 122 264.5t314 92.5q121 0 207 -43v53q0 59 -40 98t-114 39q-94 0 -156.5 -15t-137.5 -56l-109 196q188 109 403 109q199 0 318 -99.5t119 -277.5v-721h-283v72q-90 -94 -242 -95q-164 0 -282.5 99.5t-118.5 283.5zM409 257q40 -40 123 -40q66 0 119 28.5 t78 69.5v136q-72 45 -197 45q-163 0 -163 -134q0 -65 40 -105z" />
<glyph unicode="b" horiz-adv-x="1150" d="M137 0v1352l283 141v-485q102 90 227 90q184 0 301 -143.5t117 -430.5q0 -246 -110.5 -396.5t-307.5 -150.5q-135 0 -227 84v-61h-283zM420 336q68 -92 190 -92q168 0 168 274q0 313 -184 313q-104 0 -174 -90v-405z" />
<glyph unicode="c" horiz-adv-x="1099" d="M82 537q0 246 145.5 403.5t370.5 157.5q270 0 426 -238l-186 -188q-53 76 -109.5 114.5t-136.5 38.5q-102 0 -162.5 -78.5t-60.5 -209.5q0 -129 61.5 -208t161.5 -79q139 0 254 137l180 -170q-88 -117 -189.5 -178.5t-250.5 -61.5q-213 0 -358.5 158t-145.5 402z" />
<glyph unicode="d" horiz-adv-x="1150" d="M82 551q0 246 110.5 396.5t307.5 150.5q135 0 227 -84v338l283 141v-1493h-283v68q-102 -90 -227 -91q-184 0 -301 143.5t-117 430.5zM369 557q0 -313 184 -313q104 0 174 90v405q-68 92 -190 92q-168 0 -168 -274z" />
<glyph unicode="e" horiz-adv-x="1101" d="M82 537q0 246 136 403.5t343 157.5q209 0 331 -160.5t122 -400.5q0 -49 -4 -91h-643q6 -102 70.5 -152t150.5 -50q119 0 184 75l201 -167q-63 -82 -169 -128.5t-216 -46.5q-231 0 -368.5 152t-137.5 408zM371 659h368q-6 80 -55 136.5t-137 56.5q-74 0 -121 -54.5 t-55 -138.5z" />
<glyph unicode="f" horiz-adv-x="757" d="M78 809v266h129v129q0 283 307 283q104 0 178 -31v-227q-43 22 -94 22h-4q-61 0 -83 -19.5t-22 -66.5v-90h183v-266h-183v-809h-282v809h-129z" />
<glyph unicode="g" horiz-adv-x="1150" d="M82 551q0 246 110.5 396.5t307.5 150.5q135 0 227 -84v61h283v-893q0 -281 -96.5 -415t-366.5 -162l-101 213q166 23 223.5 74t57.5 176q-102 -90 -227 -91q-184 0 -301 143.5t-117 430.5zM369 557q0 -313 184 -313q104 0 174 90v405q-68 92 -190 92q-168 0 -168 -274z " />
<glyph unicode="h" horiz-adv-x="1196" d="M137 0v1352l283 141v-489q90 94 252 94q201 0 299 -129t98 -363v-606h-283v582q0 139 -45 194t-137 55t-138 -55t-46 -188v-588h-283z" />
<glyph unicode="i" horiz-adv-x="577" d="M127 1325.5q0 65.5 48 113.5t113.5 48t114 -48t48.5 -113.5t-48.5 -114t-114 -48.5t-113.5 48.5t-48 114zM147 0v1075h283v-1075h-283z" />
<glyph unicode="j" horiz-adv-x="577" d="M-90 -178q147 29 192 75t45 171v1007h283v-995q0 -229 -89 -332.5t-333 -142.5zM127 1325.5q0 65.5 48 113.5t113.5 48t114 -48t48.5 -113.5t-48.5 -114t-114 -48.5t-113.5 48.5t-48 114z" />
<glyph unicode="k" horiz-adv-x="1128" d="M137 0v1352l283 141v-571q0 -123 -4 -230q51 76 114 158l175 225h333l-276 -342l309 -733h-309l-205 496l-137 -170v-326h-283z" />
<glyph unicode="l" horiz-adv-x="577" d="M147 0v1352l283 141v-1493h-283z" />
<glyph unicode="m" horiz-adv-x="1804" d="M137 0v1075h283v-71q90 94 235 94q102 0 169 -32t128 -105q133 137 342 137q383 0 383 -492v-606h-282v582q0 139 -41 194t-131 55t-132 -54t-42 -189v-588h-283v582q0 139 -41 194t-131 55t-132 -54t-42 -189v-588h-283z" />
<glyph unicode="n" horiz-adv-x="1196" d="M137 0v1075h283v-71q90 94 252 94q201 0 299 -129t98 -363v-606h-283v582q0 139 -45 194t-137 55t-138 -55t-46 -188v-588h-283z" />
<glyph unicode="o" horiz-adv-x="1136" d="M82 536.5q0 245.5 137 403.5t348 158t349.5 -158t138.5 -403.5t-138.5 -402.5t-349.5 -157t-348 157t-137 402.5zM369 537q0 -129 50 -208t148 -79q96 0 148.5 83t52.5 204q0 129 -51 208.5t-149.5 79.5t-148.5 -78.5t-50 -209.5z" />
<glyph unicode="p" horiz-adv-x="1150" d="M137 -395v1470h283v-67q102 90 227 90q184 0 301 -143.5t117 -430.5q0 -246 -110.5 -396.5t-307.5 -150.5q-135 0 -227 84v-315zM420 336q68 -92 190 -92q168 0 168 274q0 313 -184 313q-104 0 -174 -90v-405z" />
<glyph unicode="q" horiz-adv-x="1150" d="M82 551q0 246 110.5 396.5t307.5 150.5q135 0 227 -84v61h283v-1329l-283 -141v463q-102 -90 -227 -91q-184 0 -301 143.5t-117 430.5zM369 557q0 -313 184 -313q104 0 174 90v405q-68 92 -190 92q-168 0 -168 -274z" />
<glyph unicode="r" horiz-adv-x="876" d="M137 0v1075h283v-71q90 94 221 94q127 0 199 -76l-74 -277q-76 70 -164 70q-90 0 -136 -51t-46 -182v-582h-283z" />
<glyph unicode="s" horiz-adv-x="1099" d="M98 102l95 215q178 -98 372 -98q80 0 112 19.5t32 62.5q0 37 -34 59.5t-124 49t-144.5 46t-115 51.5t-92 66.5t-52 86t-20.5 118.5q0 162 115.5 241t314.5 79q209 0 397 -105l-90 -223q-160 86 -313 86q-82 0 -113.5 -16.5t-31.5 -53.5q0 -35 39.5 -57t183.5 -67 q86 -29 139 -52.5t109.5 -63.5t83 -97.5t26.5 -135.5q0 -174 -121 -255t-317 -81q-262 0 -451 125z" />
<glyph unicode="t" horiz-adv-x="905" d="M51 809v266h180v277l283 141v-418h258v-266h-258v-432q0 -74 25.5 -101.5t78.5 -27.5q64 0 160 82l-41 -287q-84 -66 -219 -66q-129 0 -208 90.5t-79 233.5v508h-180z" />
<glyph unicode="u" horiz-adv-x="1196" d="M127 469v606h283v-581q0 -139 45 -194.5t137 -55.5t138 55t46 188v588h283v-1075h-283v72q-90 -94 -252 -95q-201 0 -299 129.5t-98 362.5z" />
<glyph unicode="v" horiz-adv-x="1167" d="M51 1075h311l158 -497q43 -131 68 -236q18 82 67 236l158 497h303l-387 -1075h-291z" />
<glyph unicode="w" horiz-adv-x="1519" d="M51 1075h287l94 -397q41 -182 51 -246q12 76 58 246l106 397h234l106 -397q45 -170 57 -246q10 63 52 246l94 397h278l-309 -1075h-235l-107 422q-49 199 -57 254q-8 -55 -58 -254l-106 -422h-236z" />
<glyph unicode="x" horiz-adv-x="1175" d="M45 0l381 582l-324 493h336l51 -88q61 -100 99 -174q16 35 98 174l51 88h336l-323 -493l380 -582h-335l-109 178q-61 100 -98 174q-18 -41 -99 -174l-108 -178h-336z" />
<glyph unicode="y" horiz-adv-x="1208" d="M51 1075h311l177 -518q41 -119 69 -235q23 98 70 235l176 518h303l-553 -1454h-278l143 379z" />
<glyph unicode="z" horiz-adv-x="1134" d="M123 0v205l391 465l135 153q-78 -4 -176 -4h-315v256h854v-205l-379 -464q-14 -18 -133 -154q78 4 176 4h336v-256h-889z" />
<glyph unicode="{" horiz-adv-x="942" d="M123 494v229h45q123 0 123 141v148q0 217 132 324.5t411 107.5v-187q-150 -14 -203 -74.5t-53 -191.5v-63q0 -158 -44.5 -223.5t-150.5 -96.5q106 -31 150.5 -96.5t44.5 -222.5v-62q0 -131 53 -191.5t203 -74.5v-186q-279 0 -411 107.5t-132 324.5v145q0 141 -123 142 h-45z" />
<glyph unicode="|" horiz-adv-x="583" d="M164 -379v2017h256v-2017h-256z" />
<glyph unicode="}" horiz-adv-x="942" d="M109 -39q150 14 203 74.5t53 191.5v64q0 158 44 223.5t150 95.5q-106 31 -150 96.5t-44 223.5v61q0 131 -53.5 191.5t-202.5 74.5v187q279 0 410.5 -107.5t131.5 -324.5v-146q0 -141 123 -141h45v-229h-45q-123 0 -123 -142v-147q0 -217 -132 -324.5t-410 -107.5v186z " />
<glyph unicode="~" horiz-adv-x="1150" d="M86 651q59 154 133 232t180 78q96 0 197 -70q121 -82 160 -82q43 0 67.5 25.5t73.5 119.5l168 -86q-59 -154 -133 -231.5t-180 -77.5q-96 0 -197 70q-119 82 -160 82q-43 0 -67.5 -26t-73.5 -120z" />
<glyph unicode="&#xa1;" horiz-adv-x="696" d="M174 1282q0 70 52.5 122t122 52t121.5 -52t52 -122t-52 -122t-121.5 -52t-122 52t-52.5 122zM205 0v590l47 393h192l48 -393v-590h-287z" />
<glyph unicode="&#xa2;" horiz-adv-x="1099" d="M82 729q0 197 95 339t253 196v170h277v-154q190 -39 317 -227l-186 -176q-53 76 -109.5 114.5t-136.5 38.5q-102 0 -162.5 -79t-60.5 -222q0 -139 60 -219t163 -80q139 0 254 137l180 -157q-139 -188 -319 -228v-205h-277v218q-156 51 -252 194t-96 340z" />
<glyph unicode="&#xa3;" horiz-adv-x="1372" d="M180 0v209q174 141 199 344h-199v231h162q-8 18 -26.5 49t-24.5 44q-59 111 -60 202q0 180 137.5 278.5t387.5 98.5h3q303 0 519 -194l-172 -211q-143 129 -354 129q-100 0 -153.5 -37t-53.5 -103q0 -53 51 -143q45 -78 55 -113h314v-231h-293q-12 -160 -135 -307h712 v-246h-1069z" />
<glyph unicode="&#xa4;" horiz-adv-x="1638" d="M41 717l346 264q31 20 55 6q28 -15 28 -46q0 -9 -3 -21l-41 -99h285v258l-95 -39q-13 -5 -25 -5q-28 0 -46 28q-14 25 4 57l270 344l264 -344q20 -33 7 -57q-17 -27 -45 -27q-11 0 -23 4l-98 39v-258h288l-41 99q-3 12 -3 21q0 31 28 46q25 14 57 -6l344 -264l-344 -271 q-35 -18 -57 -4q-28 17 -28 51q0 11 3 23l41 92h-288v-254l98 39q13 4 23 4q28 0 45 -26q14 -25 -7 -58l-264 -344l-270 344q-18 33 -4 58q18 26 46 26q12 0 25 -4l95 -39v254h-285l41 -94q4 -12 4 -23q0 -31 -29 -49q-23 -14 -55 4z" />
<glyph unicode="&#xa5;" horiz-adv-x="1400" d="M45 1434h330l188 -340q104 -186 139 -281q47 115 140 281l188 340h326l-518 -877v-100h333v-242h-333v-215h-275v215h-334v242h334v94z" />
<glyph unicode="&#xa6;" horiz-adv-x="1638" d="M41 717l346 264q31 20 55 6q28 -15 28 -46q0 -9 -3 -21l-41 -99h285v258l-95 -39q-13 -5 -25 -5q-28 0 -46 28q-14 25 4 57l270 344l264 -344q20 -33 7 -57q-17 -27 -45 -27q-11 0 -23 4l-98 39v-258h288l-41 99q-3 12 -3 21q0 31 28 46q25 14 57 -6l344 -264l-344 -271 q-35 -18 -57 -4q-28 17 -28 51q0 11 3 23l41 92h-288v-254l98 39q13 4 23 4q28 0 45 -26q14 -25 -7 -58l-264 -344l-270 344q-18 33 -4 58q18 26 46 26q12 0 25 -4l95 -39v254h-285l41 -94q4 -12 4 -23q0 -31 -29 -49q-23 -14 -55 4z" />
<glyph unicode="&#xa7;" horiz-adv-x="1433" d="M113 606q0 221 223 338q-39 70 -39 178q0 147 111.5 240.5t314.5 93.5q252 0 440 -139l-141 -197q-143 100 -317 101q-143 0 -144 -97q0 -47 58.5 -76.5t281.5 -103.5q219 -74 319.5 -167t100.5 -263q0 -221 -225 -338q41 -68 41 -178q0 -147 -112 -240.5t-314 -93.5 q-252 0 -441 139l142 197q143 -100 317 -100q143 0 143 96q0 47 -58 76.5t-282 103.5q-219 74 -319 167t-100 263zM387 627q0 -33 18.5 -62.5t38 -47t68.5 -40t73.5 -32t86.5 -29.5q158 -53 243 -94q132 55 132 172q0 33 -18.5 62.5t-38 47t-69 40t-73.5 31.5l-86 30 q-158 53 -244 94q-131 -55 -131 -172z" />
<glyph unicode="&#xa8;" horiz-adv-x="1024" d="M131 1376q0 66 47 113t112.5 47t113 -47t47.5 -113q0 -63 -48.5 -110t-112 -47t-111.5 47t-48 110zM573 1376q0 66 48.5 113t113.5 47q63 0 110.5 -47t47.5 -113q0 -63 -47 -110t-111 -47q-66 0 -114 47t-48 110z" />
<glyph unicode="&#xa9;" horiz-adv-x="1712" d="M117 716.5q0 315.5 212 527.5t527 212t527 -212t212 -527.5t-212 -527.5t-527 -212t-527 212t-212 527.5zM248 717q0 -260 174 -434t434 -174t434 174t174 434t-174 434t-434 174t-434 -174t-174 -434zM512 721q0 182 100.5 300t255.5 118q207 0 295 -178l-162 -91 q-51 90 -135 91q-161 0 -161 -237q0 -116 43 -178.5t120 -62.5q80 0 146 105l143 -99q-53 -92 -121.5 -138t-171.5 -46q-160 0 -256 112.5t-96 303.5z" />
<glyph unicode="&#xaa;" horiz-adv-x="976" d="M100 858q0 139 99.5 214t255.5 75q102 0 172 -35v43q0 49 -34 82t-95 33q-133 0 -242 -60l-86 160q160 86 328 86q160 0 256 -81t96 -224v-586h-223v64q-76 -80 -201 -80q-133 0 -229.5 80t-96.5 229zM326 858q0 -51 33.5 -86t103.5 -35q51 0 96 25.5t68 58.5v113 q-61 35 -164 35q-137 0 -137 -111z" />
<glyph unicode="&#xab;" horiz-adv-x="1286" d="M61 537l334 538h293l-323 -536l323 -539h-293zM578 537l333 538h293l-323 -536l323 -539h-293z" />
<glyph unicode="&#xac;" horiz-adv-x="1331" d="M92 575v267h711l-29 100q-4 14 -4 27q0 34 31 55q15 11 31 11q20 0 42 -17l416 -307l-416 -314q-23 -15 -43 -15q-16 0 -30 11q-31 23 -31 58q0 13 4 28l29 96h-711z" />
<glyph unicode="&#xad;" horiz-adv-x="833" d="M123 602v283h588v-283h-588z" />
<glyph unicode="&#xae;" horiz-adv-x="1712" d="M117 716.5q0 315.5 212 527.5t527 212t527 -212t212 -527.5t-212 -527.5t-527 -212t-527 212t-212 527.5zM248 717q0 -260 174 -434t434 -174t434 174t174 434t-174 434t-434 174t-434 -174t-174 -434zM557 328v807h375q123 0 199.5 -64.5t76.5 -189.5q0 -174 -159 -236 l155 -317h-192l-146 295h-139v-295h-170zM727 772h193q114 1 114 105q0 102 -114 102h-193v-207z" />
<glyph unicode="&#xaf;" horiz-adv-x="1024" d="M215 1249v215h594v-215h-594z" />
<glyph unicode="&#xb0;" horiz-adv-x="995" d="M92 1053q0 170 118 286.5t288 116.5q172 0 288.5 -116.5t116.5 -286.5q0 -174 -116.5 -291t-288.5 -117q-170 0 -288 118t-118 290zM307 1053q0 -82 55.5 -138.5t135.5 -56.5q82 0 136 55.5t54 139.5q0 80 -55 135t-135 55t-135.5 -56.5t-55.5 -133.5z" />
<glyph unicode="&#xb1;" horiz-adv-x="1638" d="M41 717l346 264q31 20 55 6q28 -15 28 -46q0 -9 -3 -21l-41 -99h285v258l-95 -39q-13 -5 -25 -5q-28 0 -46 28q-14 25 4 57l270 344l264 -344q20 -33 7 -57q-17 -27 -45 -27q-11 0 -23 4l-98 39v-258h288l-41 99q-3 12 -3 21q0 31 28 46q25 14 57 -6l344 -264l-344 -271 q-35 -18 -57 -4q-28 17 -28 51q0 11 3 23l41 92h-288v-254l98 39q13 4 23 4q28 0 45 -26q14 -25 -7 -58l-264 -344l-270 344q-18 33 -4 58q18 26 46 26q12 0 25 -4l95 -39v254h-285l41 -94q4 -12 4 -23q0 -31 -29 -49q-23 -14 -55 4z" />
<glyph unicode="&#xb2;" horiz-adv-x="1638" d="M41 717l346 264q31 20 55 6q28 -15 28 -46q0 -9 -3 -21l-41 -99h285v258l-95 -39q-13 -5 -25 -5q-28 0 -46 28q-14 25 4 57l270 344l264 -344q20 -33 7 -57q-17 -27 -45 -27q-11 0 -23 4l-98 39v-258h288l-41 99q-3 12 -3 21q0 31 28 46q25 14 57 -6l344 -264l-344 -271 q-35 -18 -57 -4q-28 17 -28 51q0 11 3 23l41 92h-288v-254l98 39q13 4 23 4q28 0 45 -26q14 -25 -7 -58l-264 -344l-270 344q-18 33 -4 58q18 26 46 26q12 0 25 -4l95 -39v254h-285l41 -94q4 -12 4 -23q0 -31 -29 -49q-23 -14 -55 4z" />
<glyph unicode="&#xb3;" horiz-adv-x="1638" d="M41 717l346 264q31 20 55 6q28 -15 28 -46q0 -9 -3 -21l-41 -99h285v258l-95 -39q-13 -5 -25 -5q-28 0 -46 28q-14 25 4 57l270 344l264 -344q20 -33 7 -57q-17 -27 -45 -27q-11 0 -23 4l-98 39v-258h288l-41 99q-3 12 -3 21q0 31 28 46q25 14 57 -6l344 -264l-344 -271 q-35 -18 -57 -4q-28 17 -28 51q0 11 3 23l41 92h-288v-254l98 39q13 4 23 4q28 0 45 -26q14 -25 -7 -58l-264 -344l-270 344q-18 33 -4 58q18 26 46 26q12 0 25 -4l95 -39v254h-285l41 -94q4 -12 4 -23q0 -31 -29 -49q-23 -14 -55 4z" />
<glyph unicode="&#xb4;" horiz-adv-x="1024" d="M283 1219l178 327h358l-297 -327h-239z" />
<glyph unicode="&#xb5;" horiz-adv-x="1638" d="M41 707l416 313q23 15 43 15q16 0 30 -11q31 -23 31 -58q0 -13 -4 -28l-29 -96h582l-29 100q-4 14 -4 27q0 34 31 55q15 11 31 11q20 0 43 -17l415 -307l-415 -314q-23 -15 -43 -15q-17 0 -31 11q-31 23 -31 58q0 13 4 28l29 96h-582l29 -100q4 -14 4 -27q0 -34 -31 -55 q-15 -11 -31 -11q-20 0 -42 17z" />
<glyph unicode="&#x3bc;" horiz-adv-x="1638" d="M41 707l416 313q23 15 43 15q16 0 30 -11q31 -23 31 -58q0 -13 -4 -28l-29 -96h582l-29 100q-4 14 -4 27q0 34 31 55q15 11 31 11q20 0 43 -17l415 -307l-415 -314q-23 -15 -43 -15q-17 0 -31 11q-31 23 -31 58q0 13 4 28l29 96h-582l29 -100q4 -14 4 -27q0 -34 -31 -55 q-15 -11 -31 -11q-20 0 -42 17z" />
<glyph unicode="&#xb6;" horiz-adv-x="1482" d="M96 985q0 207 134.5 328t330.5 121h739v-1813h-233v1596h-131v-1596h-234v914h-141q-197 0 -331 120.5t-134 329.5z" />
<glyph unicode="&#xb7;" horiz-adv-x="557" d="M86 751.5q0 77.5 57.5 135t135 57.5t135 -57.5t57.5 -135t-57.5 -135t-135 -57.5t-135 57.5t-57.5 135z" />
<glyph unicode="&#xb8;" horiz-adv-x="1024" d="M260 -322l43 78q92 -49 182 -49q111 0 111 70q0 53 -64 53q-33 0 -61 -14l-74 28l56 232h114l-35 -162q29 14 80 14q70 0 115 -36.5t45 -108.5q0 -90 -65.5 -134t-178.5 -44q-150 0 -268 73z" />
<glyph unicode="&#xb9;" horiz-adv-x="1638" d="M41 717l346 264q31 20 55 6q28 -15 28 -46q0 -9 -3 -21l-41 -99h285v258l-95 -39q-13 -5 -25 -5q-28 0 -46 28q-14 25 4 57l270 344l264 -344q20 -33 7 -57q-17 -27 -45 -27q-11 0 -23 4l-98 39v-258h288l-41 99q-3 12 -3 21q0 31 28 46q25 14 57 -6l344 -264l-344 -271 q-35 -18 -57 -4q-28 17 -28 51q0 11 3 23l41 92h-288v-254l98 39q13 4 23 4q28 0 45 -26q14 -25 -7 -58l-264 -344l-270 344q-18 33 -4 58q18 26 46 26q12 0 25 -4l95 -39v254h-285l41 -94q4 -12 4 -23q0 -31 -29 -49q-23 -14 -55 4z" />
<glyph unicode="&#xba;" horiz-adv-x="1005" d="M109 1001.5q0 198.5 110.5 326.5t282.5 128t283.5 -128t111.5 -326.5t-111.5 -325.5t-283.5 -127t-282.5 127t-110.5 325.5zM340 1001.5q0 -104.5 41 -168t121 -63.5q78 0 120 67.5t42 163.5q0 104 -42 169t-120 65t-120 -64.5t-42 -169z" />
<glyph unicode="&#xbb;" horiz-adv-x="1286" d="M82 0l324 537l-324 538h293l334 -536l-334 -539h-293zM598 0l324 537l-324 538h293l334 -536l-334 -539h-293z" />
<glyph unicode="&#xbc;" horiz-adv-x="1638" d="M41 717l346 264q31 20 55 6q28 -15 28 -46q0 -9 -3 -21l-41 -99h285v258l-95 -39q-13 -5 -25 -5q-28 0 -46 28q-14 25 4 57l270 344l264 -344q20 -33 7 -57q-17 -27 -45 -27q-11 0 -23 4l-98 39v-258h288l-41 99q-3 12 -3 21q0 31 28 46q25 14 57 -6l344 -264l-344 -271 q-35 -18 -57 -4q-28 17 -28 51q0 11 3 23l41 92h-288v-254l98 39q13 4 23 4q28 0 45 -26q14 -25 -7 -58l-264 -344l-270 344q-18 33 -4 58q18 26 46 26q12 0 25 -4l95 -39v254h-285l41 -94q4 -12 4 -23q0 -31 -29 -49q-23 -14 -55 4z" />
<glyph unicode="&#xbd;" horiz-adv-x="1638" d="M41 717l346 264q31 20 55 6q28 -15 28 -46q0 -9 -3 -21l-41 -99h285v258l-95 -39q-13 -5 -25 -5q-28 0 -46 28q-14 25 4 57l270 344l264 -344q20 -33 7 -57q-17 -27 -45 -27q-11 0 -23 4l-98 39v-258h288l-41 99q-3 12 -3 21q0 31 28 46q25 14 57 -6l344 -264l-344 -271 q-35 -18 -57 -4q-28 17 -28 51q0 11 3 23l41 92h-288v-254l98 39q13 4 23 4q28 0 45 -26q14 -25 -7 -58l-264 -344l-270 344q-18 33 -4 58q18 26 46 26q12 0 25 -4l95 -39v254h-285l41 -94q4 -12 4 -23q0 -31 -29 -49q-23 -14 -55 4z" />
<glyph unicode="&#xbe;" horiz-adv-x="1638" d="M41 717l346 264q31 20 55 6q28 -15 28 -46q0 -9 -3 -21l-41 -99h285v258l-95 -39q-13 -5 -25 -5q-28 0 -46 28q-14 25 4 57l270 344l264 -344q20 -33 7 -57q-17 -27 -45 -27q-11 0 -23 4l-98 39v-258h288l-41 99q-3 12 -3 21q0 31 28 46q25 14 57 -6l344 -264l-344 -271 q-35 -18 -57 -4q-28 17 -28 51q0 11 3 23l41 92h-288v-254l98 39q13 4 23 4q28 0 45 -26q14 -25 -7 -58l-264 -344l-270 344q-18 33 -4 58q18 26 46 26q12 0 25 -4l95 -39v254h-285l41 -94q4 -12 4 -23q0 -31 -29 -49q-23 -14 -55 4z" />
<glyph unicode="&#xbf;" horiz-adv-x="1196" d="M78 395q0 240 207 338q129 61 173 110.5t48 139.5h280q0 -154 -61 -250t-227 -172q-78 -35 -105.5 -66.5t-27.5 -86.5q0 -150 243 -150q197 0 359 172l184 -215q-227 -238 -543 -238q-244 0 -387 105.5t-143 312.5zM471 1282q0 70 51 122t123 52t123 -52t51 -122 t-51 -122t-123 -52t-123 52t-51 122z" />
<glyph unicode="&#xc0;" horiz-adv-x="1536" d="M82 0l549 1434h278l545 -1434h-315l-113 319h-524l-113 -319h-307zM379 1853h358l178 -327h-239zM600 592h328l-92 260q-55 160 -72 223q-16 -63 -72 -223z" />
<glyph unicode="&#xc1;" horiz-adv-x="1536" d="M82 0l549 1434h278l545 -1434h-315l-113 319h-524l-113 -319h-307zM600 592h328l-92 260q-55 160 -72 223q-16 -63 -72 -223zM600 1526l178 327h359l-297 -327h-240z" />
<glyph unicode="&#xc2;" horiz-adv-x="1536" d="M82 0l549 1434h278l545 -1434h-315l-113 319h-524l-113 -319h-307zM373 1526l250 327h286l250 -327h-190l-205 153l-205 -153h-186zM600 592h328l-92 260q-55 160 -72 223q-16 -63 -72 -223z" />
<glyph unicode="&#xc3;" horiz-adv-x="1536" d="M82 0l549 1434h278l545 -1434h-315l-113 319h-524l-113 -319h-307zM371 1526q0 135 64.5 215t170.5 80q61 0 101.5 -13.5t105.5 -50.5q72 -41 107 -41q53 0 69 99h185q0 -135 -65 -215t-171 -80q-61 0 -101 13t-106 50q-72 41 -106 41q-53 0 -70 -98h-184zM600 592h328 l-92 260q-55 160 -72 223q-16 -63 -72 -223z" />
<glyph unicode="&#xc4;" horiz-adv-x="1536" d="M82 0l549 1434h278l545 -1434h-315l-113 319h-524l-113 -319h-307zM385 1683q0 66 47 113t112.5 47t113 -47t47.5 -113q0 -63 -48.5 -110t-112 -47t-111.5 47t-48 110zM600 592h328l-92 260q-55 160 -72 223q-16 -63 -72 -223zM827 1683q0 66 48.5 113t113.5 47 q63 0 110.5 -47t47.5 -113q0 -63 -47 -110t-111 -47q-66 0 -114 47t-48 110z" />
<glyph unicode="&#xc5;" horiz-adv-x="1536" d="M82 0l504 1317q-92 80 -92 209q0 119 78.5 197.5t197.5 78.5t198 -78.5t79 -197.5q0 -131 -95 -209l502 -1317h-315l-113 319h-524l-113 -319h-307zM600 592h328l-92 260q-55 160 -72 223q-16 -63 -72 -223zM649 1526q0 -51 35 -87t86 -36t86 36t35 87t-35 87t-86 36 t-86 -36t-35 -87z" />
<glyph unicode="&#xc6;" horiz-adv-x="2125" d="M29 0l962 1434h983v-275h-667v-258h370v-270h-370v-357h698v-274h-973v256h-510l-166 -256h-327zM686 508h346v262q0 45 2 159.5t2 139.5q-57 -115 -164 -274z" />
<glyph unicode="&#xc7;" horiz-adv-x="1372" d="M109 717q0 328 178 533.5t458 205.5q371 0 525 -317l-266 -123q-81 155 -261 155h-2q-158 0 -248 -124.5t-90 -329.5q0 -199 91.5 -327t248.5 -128q94 0 159 43t122 139l242 -143q-154 -317 -514 -324l-15 -63q29 14 80 14q70 0 115 -36.5t45 -108.5q0 -90 -65.5 -134 t-178.5 -44q-150 0 -268 73l43 78q92 -49 182 -49q111 0 111 70q0 53 -64 53q-33 0 -61 -14l-74 28l33 140q-240 35 -383 231.5t-143 501.5z" />
<glyph unicode="&#xc8;" horiz-adv-x="1331" d="M184 0v1434h996v-281h-709v-248h412v-278h-412v-346h739v-281h-1026zM301 1853h358l179 -327h-240z" />
<glyph unicode="&#xc9;" horiz-adv-x="1331" d="M184 0v1434h996v-281h-709v-248h412v-278h-412v-346h739v-281h-1026zM522 1526l178 327h359l-297 -327h-240z" />
<glyph unicode="&#xca;" horiz-adv-x="1331" d="M184 0v1434h996v-281h-709v-248h412v-278h-412v-346h739v-281h-1026zM295 1526l250 327h286l250 -327h-190l-205 153l-205 -153h-186z" />
<glyph unicode="&#xcb;" horiz-adv-x="1331" d="M184 0v1434h996v-281h-709v-248h412v-278h-412v-346h739v-281h-1026zM307 1683q0 66 47 113t112.5 47t113 -47t47.5 -113q0 -63 -48.5 -110t-112 -47t-111.5 47t-48 110zM750 1683q0 66 48 113t113 47q63 0 110.5 -47t47.5 -113q0 -63 -47 -110t-111 -47q-66 0 -113.5 47 t-47.5 110z" />
<glyph unicode="&#xcc;" horiz-adv-x="696" d="M-59 1853h358l178 -327h-239zM205 0v1434h287v-1434h-287z" />
<glyph unicode="&#xcd;" horiz-adv-x="696" d="M203 1526l178 327h358l-297 -327h-239zM205 0v1434h287v-1434h-287z" />
<glyph unicode="&#xce;" horiz-adv-x="696" d="M-45 1505l250 328h287l249 -328h-190l-205 154l-205 -154h-186zM205 0v1434h287v-1434h-287z" />
<glyph unicode="&#xcf;" horiz-adv-x="696" d="M-33 1673q0 66 47 113t113 47t113 -47t47 -113q0 -63 -48.5 -110t-112 -47t-111.5 47t-48 110zM205 0v1434h287v-1434h-287zM410 1673q0 66 48 113t113 47q63 0 110.5 -47t47.5 -113q0 -63 -47 -110t-111 -47q-66 0 -113.5 47t-47.5 110z" />
<glyph unicode="&#xd0;" horiz-adv-x="1478" d="M82 631v235h133v568h449q330 0 521 -172t191 -545q0 -147 -41 -268t-110.5 -203t-163.5 -138.5t-199.5 -82t-218.5 -25.5h-428v631h-133zM494 279h149q219 0 328.5 116.5t109.5 321.5q0 223 -102 330.5t-326 107.5h-159v-289h192v-235h-192v-352z" />
<glyph unicode="&#xd1;" horiz-adv-x="1529" d="M184 0v1434h275l508 -758q82 -127 100 -162q0 23 -2 146.5t-2 166.5v607h283v-1434h-256l-527 782q-82 127 -100 162q0 -23 2 -146.5t2 -166.5v-631h-283zM371 1526q0 135 64.5 215t170.5 80q61 0 101.5 -13.5t105.5 -50.5q72 -41 107 -41q53 0 69 99h185 q0 -135 -65 -215t-171 -80q-61 0 -101 13t-106 50q-72 41 -106 41q-53 0 -70 -98h-184z" />
<glyph unicode="&#xd2;" d="M109 717q0 332 166.5 535.5t455.5 203.5t456 -203.5t167 -535.5t-167 -536t-456 -204t-455.5 204t-166.5 536zM340 1853h358l179 -327h-240zM403 717q0 -205 81 -330t247 -125t247 125t81 330t-81 329.5t-247 124.5t-247 -124.5t-81 -329.5z" />
<glyph unicode="&#xd3;" d="M109 717q0 332 166.5 535.5t455.5 203.5t456 -203.5t167 -535.5t-167 -536t-456 -204t-455.5 204t-166.5 536zM403 717q0 -205 81 -330t247 -125t247 125t81 330t-81 329.5t-247 124.5t-247 -124.5t-81 -329.5zM561 1526l178 327h359l-297 -327h-240z" />
<glyph unicode="&#xd4;" d="M109 717q0 332 166.5 535.5t455.5 203.5t456 -203.5t167 -535.5t-167 -536t-456 -204t-455.5 204t-166.5 536zM334 1516l250 327h286l250 -327h-190l-205 153l-205 -153h-186zM403 717q0 -205 81 -330t247 -125t247 125t81 330t-81 329.5t-247 124.5t-247 -124.5 t-81 -329.5z" />
<glyph unicode="&#xd5;" d="M109 717q0 332 166.5 535.5t455.5 203.5t456 -203.5t167 -535.5t-167 -536t-456 -204t-455.5 204t-166.5 536zM332 1526q0 135 64.5 215t170.5 80q61 0 101.5 -13.5t105.5 -50.5q72 -41 107 -41q53 0 69 99h185q0 -135 -64.5 -215t-171.5 -80q-61 0 -101 13t-106 50 q-72 41 -106 41q-53 0 -70 -98h-184zM403 717q0 -205 81 -330t247 -125t247 125t81 330t-81 329.5t-247 124.5t-247 -124.5t-81 -329.5z" />
<glyph unicode="&#xd6;" d="M109 717q0 332 166.5 535.5t455.5 203.5t456 -203.5t167 -535.5t-167 -536t-456 -204t-455.5 204t-166.5 536zM346 1683q0 66 47 113t112.5 47t113 -47t47.5 -113q0 -63 -48.5 -110t-112 -47t-111.5 47t-48 110zM403 717q0 -205 81 -330t247 -125t247 125t81 330 t-81 329.5t-247 124.5t-247 -124.5t-81 -329.5zM788 1683q0 66 48.5 113t113.5 47q63 0 110.5 -47t47.5 -113q0 -63 -47 -110t-111 -47q-66 0 -114 47t-48 110z" />
<glyph unicode="&#xd7;" horiz-adv-x="1638" d="M41 717l346 264q31 20 55 6q28 -15 28 -46q0 -9 -3 -21l-41 -99h285v258l-95 -39q-13 -5 -25 -5q-28 0 -46 28q-14 25 4 57l270 344l264 -344q20 -33 7 -57q-17 -27 -45 -27q-11 0 -23 4l-98 39v-258h288l-41 99q-3 12 -3 21q0 31 28 46q25 14 57 -6l344 -264l-344 -271 q-35 -18 -57 -4q-28 17 -28 51q0 11 3 23l41 92h-288v-254l98 39q13 4 23 4q28 0 45 -26q14 -25 -7 -58l-264 -344l-270 344q-18 33 -4 58q18 26 46 26q12 0 25 -4l95 -39v254h-285l41 -94q4 -12 4 -23q0 -31 -29 -49q-23 -14 -55 4z" />
<glyph unicode="&#xd8;" d="M275.5 1252.5q166.5 203.5 455.5 203.5q109 0 203 -37l57 117h271l-121 -250q213 -209 213 -569q0 -332 -167 -536t-456 -204q-106 0 -211 39l-57 -118h-270l124 254q-208 212 -208 562q0 335 166.5 538.5zM393 717q0 -174 56 -291l366 750q-45 10 -84 10 q-170 0 -254 -129t-84 -340zM639 260q43 -12 92 -12q170 0 254 129t84 340q0 184 -61 301z" />
<glyph unicode="&#xd9;" horiz-adv-x="1509" d="M174 629v805h287v-801q0 -172 78.5 -273.5t214.5 -101.5q137 0 216 99.5t79 271.5v805h286v-801q0 -311 -153.5 -483.5t-427.5 -172.5q-264 0 -422 172.5t-158 479.5zM371 1823h358l178 -328h-239z" />
<glyph unicode="&#xda;" horiz-adv-x="1509" d="M174 629v805h287v-801q0 -172 78.5 -273.5t214.5 -101.5q137 0 216 99.5t79 271.5v805h286v-801q0 -311 -153.5 -483.5t-427.5 -172.5q-264 0 -422 172.5t-158 479.5zM592 1495l178 328h358l-297 -328h-239z" />
<glyph unicode="&#xdb;" horiz-adv-x="1509" d="M174 629v805h287v-801q0 -172 78.5 -273.5t214.5 -101.5q137 0 216 99.5t79 271.5v805h286v-801q0 -311 -153.5 -483.5t-427.5 -172.5q-264 0 -422 172.5t-158 479.5zM365 1526l249 327h287l250 -327h-190l-205 153l-205 -153h-186z" />
<glyph unicode="&#xdc;" horiz-adv-x="1509" d="M174 629v805h287v-801q0 -172 78.5 -273.5t214.5 -101.5q137 0 216 99.5t79 271.5v805h286v-801q0 -311 -153.5 -483.5t-427.5 -172.5q-264 0 -422 172.5t-158 479.5zM375 1683q0 66 47 113t112.5 47t112.5 -47t47 -113q0 -63 -48 -110t-111.5 -47t-111.5 47t-48 110z M817 1683q0 66 48 113t114 47q63 0 110.5 -47t47.5 -113q0 -63 -47.5 -110t-110.5 -47q-66 0 -114 47t-48 110z" />
<glyph unicode="&#xdd;" d="M45 1434h330l203 -340q96 -162 155 -281q55 113 156 281l203 340h325l-543 -867v-567h-286v561zM567 1505l178 328h359l-297 -328h-240z" />
<glyph unicode="&#xde;" horiz-adv-x="1392" d="M184 0v1434h287v-222h340q215 0 354.5 -117.5t139.5 -336.5q0 -238 -141.5 -354.5t-377.5 -116.5h-315v-287h-287zM471 565h334q205 1 205 187q0 182 -209 182h-330v-369z" />
<glyph unicode="&#xdf;" horiz-adv-x="1200" d="M137 -395v1462q0 420 434 420q188 0 312.5 -100.5t124.5 -278.5q0 -219 -191 -285q131 -27 216 -116.5t85 -253.5q0 -453 -497 -453h-46v256h37q219 0 219 197q0 229 -243 229h-13v246h11q63 0 99 40t36 109q0 66 -38 105t-116 39q-84 0 -115.5 -41t-31.5 -127v-1307z " />
<glyph unicode="&#xe0;" horiz-adv-x="1138" d="M86 360q0 172 122 264.5t314 92.5q121 0 207 -43v53q0 59 -40 98t-114 39q-94 0 -156.5 -15t-137.5 -56l-109 196q188 109 403 109q199 0 318 -99.5t119 -277.5v-721h-283v72q-90 -94 -242 -95q-164 0 -282.5 99.5t-118.5 283.5zM182 1546h359l178 -327h-240zM409 257 q40 -40 123 -40q66 0 119 28.5t78 69.5v136q-72 45 -197 45q-163 0 -163 -134q0 -65 40 -105z" />
<glyph unicode="&#xe1;" horiz-adv-x="1138" d="M86 360q0 172 122 264.5t314 92.5q121 0 207 -43v53q0 59 -40 98t-114 39q-94 0 -156.5 -15t-137.5 -56l-109 196q188 109 403 109q199 0 318 -99.5t119 -277.5v-721h-283v72q-90 -94 -242 -95q-164 0 -282.5 99.5t-118.5 283.5zM409 257q40 -40 123 -40q66 0 119 28.5 t78 69.5v136q-72 45 -197 45q-163 0 -163 -134q0 -65 40 -105zM403 1219l179 327h358l-297 -327h-240z" />
<glyph unicode="&#xe2;" horiz-adv-x="1138" d="M86 360q0 172 122 264.5t314 92.5q121 0 207 -43v53q0 59 -40 98t-114 39q-94 0 -156.5 -15t-137.5 -56l-109 196q188 109 403 109q199 0 318 -99.5t119 -277.5v-721h-283v72q-90 -94 -242 -95q-164 0 -282.5 99.5t-118.5 283.5zM176 1208l250 328h287l250 -328h-191 l-205 154l-205 -154h-186zM409 257q40 -40 123 -40q66 0 119 28.5t78 69.5v136q-72 45 -197 45q-163 0 -163 -134q0 -65 40 -105z" />
<glyph unicode="&#xe3;" horiz-adv-x="1138" d="M86 360q0 172 122 264.5t314 92.5q121 0 207 -43v53q0 59 -40 98t-114 39q-94 0 -156.5 -15t-137.5 -56l-109 196q188 109 403 109q199 0 318 -99.5t119 -277.5v-721h-283v72q-90 -94 -242 -95q-164 0 -282.5 99.5t-118.5 283.5zM174 1219q0 135 64.5 214.5t171.5 79.5 q61 0 101 -13t105 -50q72 -41 107 -41q53 0 70 98h184q0 -135 -64.5 -215t-171.5 -80q-61 0 -101 13.5t-105 50.5q-72 41 -107 41q-53 0 -70 -98h-184zM409 257q40 -40 123 -40q66 0 119 28.5t78 69.5v136q-72 45 -197 45q-163 0 -163 -134q0 -65 40 -105z" />
<glyph unicode="&#xe4;" horiz-adv-x="1138" d="M86 360q0 172 122 264.5t314 92.5q121 0 207 -43v53q0 59 -40 98t-114 39q-94 0 -156.5 -15t-137.5 -56l-109 196q188 109 403 109q199 0 318 -99.5t119 -277.5v-721h-283v72q-90 -94 -242 -95q-164 0 -282.5 99.5t-118.5 283.5zM188 1366q0 66 47.5 113t113 47 t112.5 -47t47 -113q0 -63 -48 -110.5t-111.5 -47.5t-112 47.5t-48.5 110.5zM409 257q40 -40 123 -40q66 0 119 28.5t78 69.5v136q-72 45 -197 45q-163 0 -163 -134q0 -65 40 -105zM631 1366q0 66 48 113t114 47q63 0 110 -47t47 -113q0 -63 -47 -110.5t-110 -47.5 q-66 0 -114 47.5t-48 110.5z" />
<glyph unicode="&#xe5;" horiz-adv-x="1138" d="M86 360q0 172 122 264.5t314 92.5q121 0 207 -43v53q0 59 -40 98t-114 39q-94 0 -156.5 -15t-137.5 -56l-109 196q188 109 403 109q199 0 318 -99.5t119 -277.5v-721h-283v72q-90 -94 -242 -95q-164 0 -282.5 99.5t-118.5 283.5zM293 1491q0 119 79 197.5t197.5 78.5 t197.5 -78.5t79 -197.5t-79 -195.5t-197.5 -76.5t-197.5 76.5t-79 195.5zM409 257q40 -40 123 -40q66 0 119 28.5t78 69.5v136q-72 45 -197 45q-163 0 -163 -134q0 -65 40 -105zM449 1491q0 -51 34.5 -87t86 -36t86 36t34.5 87t-34.5 87t-86 36t-86 -36t-34.5 -87z" />
<glyph unicode="&#xe6;" horiz-adv-x="1726" d="M86 360q0 172 122 264.5t314 92.5q121 0 207 -43v53q0 59 -40 98t-114 39q-94 0 -156.5 -15t-137.5 -56l-109 196q188 109 403 109q211 0 324 -125q115 125 287 125q209 0 330.5 -160.5t121.5 -400.5q0 -49 -4 -91h-643q6 -102 70.5 -152t150.5 -50q119 0 185 75 l200 -167q-63 -82 -168.5 -128.5t-216.5 -46.5q-240 0 -376 164q-145 -164 -349 -164q-164 0 -282.5 99.5t-118.5 283.5zM409 257q40 -40 123 -40q66 0 119 28.5t78 69.5v136q-72 45 -197 45q-163 0 -163 -134q0 -65 40 -105zM995 659h369q-6 80 -55 136.5t-138 56.5 q-74 0 -120.5 -54.5t-55.5 -138.5z" />
<glyph unicode="&#xe7;" horiz-adv-x="1099" d="M82 537q0 246 145.5 403.5t370.5 157.5q270 0 426 -238l-186 -188q-53 76 -109.5 114.5t-136.5 38.5q-102 0 -162.5 -78.5t-60.5 -209.5q0 -129 61.5 -208t161.5 -79q139 0 254 137l180 -170q-82 -111 -176 -172t-229 -68l-15 -63q29 14 80 14q70 0 115 -36.5t45 -108.5 q0 -90 -65.5 -134t-178.5 -44q-150 0 -268 73l43 78q92 -49 182 -49q111 0 111 70q0 53 -64 53q-33 0 -61 -14l-74 28l33 140q-184 31 -303 182t-119 371z" />
<glyph unicode="&#xe8;" horiz-adv-x="1101" d="M82 537q0 246 136 403.5t343 157.5q209 0 331 -160.5t122 -400.5q0 -49 -4 -91h-643q6 -102 70.5 -152t150.5 -50q119 0 184 75l201 -167q-63 -82 -169 -128.5t-216 -46.5q-231 0 -368.5 152t-137.5 408zM172 1546h358l179 -327h-240zM371 659h368q-6 80 -55 136.5 t-137 56.5q-74 0 -121 -54.5t-55 -138.5z" />
<glyph unicode="&#xe9;" horiz-adv-x="1101" d="M82 537q0 246 136 403.5t343 157.5q209 0 331 -160.5t122 -400.5q0 -49 -4 -91h-643q6 -102 70.5 -152t150.5 -50q119 0 184 75l201 -167q-63 -82 -169 -128.5t-216 -46.5q-231 0 -368.5 152t-137.5 408zM371 659h368q-6 80 -55 136.5t-137 56.5q-74 0 -121 -54.5 t-55 -138.5zM393 1219l178 327h359l-297 -327h-240z" />
<glyph unicode="&#xea;" horiz-adv-x="1101" d="M82 537q0 246 136 403.5t343 157.5q209 0 331 -160.5t122 -400.5q0 -49 -4 -91h-643q6 -102 70.5 -152t150.5 -50q119 0 184 75l201 -167q-63 -82 -169 -128.5t-216 -46.5q-231 0 -368.5 152t-137.5 408zM166 1198l250 328h286l250 -328h-190l-205 154l-205 -154h-186z M371 659h368q-6 80 -55 136.5t-137 56.5q-74 0 -121 -54.5t-55 -138.5z" />
<glyph unicode="&#xeb;" horiz-adv-x="1101" d="M82 537q0 246 136 403.5t343 157.5q209 0 331 -160.5t122 -400.5q0 -49 -4 -91h-643q6 -102 70.5 -152t150.5 -50q119 0 184 75l201 -167q-63 -82 -169 -128.5t-216 -46.5q-231 0 -368.5 152t-137.5 408zM178 1366q0 66 47 113t112.5 47t113 -47t47.5 -113 q0 -63 -48.5 -110.5t-112 -47.5t-111.5 47.5t-48 110.5zM371 659h368q-6 80 -55 136.5t-137 56.5q-74 0 -121 -54.5t-55 -138.5zM621 1366q0 66 48 113t113 47q63 0 110.5 -47t47.5 -113q0 -63 -47 -110.5t-111 -47.5q-66 0 -113.5 47.5t-47.5 110.5z" />
<glyph unicode="&#xec;" horiz-adv-x="577" d="M-115 1546h359l178 -327h-240zM147 0v1075h283v-1075h-283z" />
<glyph unicode="&#xed;" horiz-adv-x="577" d="M147 0v1075h283v-1075h-283zM154 1219l178 327h358l-297 -327h-239z" />
<glyph unicode="&#xee;" horiz-adv-x="577" d="M-104 1188l249 328h287l250 -328h-190l-205 153l-205 -153h-186zM147 0v1075h283v-1075h-283z" />
<glyph unicode="&#xef;" horiz-adv-x="577" d="M-92 1356q0 66 47 113t112.5 47t112.5 -47t47 -113q0 -63 -48 -110.5t-111.5 -47.5t-111.5 47t-48 111zM147 0v1075h283v-1075h-283zM350 1356q0 66 48 113t114 47q63 0 110.5 -47t47.5 -113q0 -63 -47.5 -110.5t-110.5 -47.5q-66 0 -114 47t-48 111z" />
<glyph unicode="&#xf0;" horiz-adv-x="1136" d="M82 475q0 219 130 359.5t314 140.5q141 0 254 -78q-29 133 -133 227l-96 -94l-131 117l74 72q-92 37 -179 43v194q190 -6 336 -82l84 82l131 -117l-69 -67q258 -237 258 -694q0 -295 -133.5 -448t-354.5 -153q-213 0 -349 138.5t-136 359.5zM358 475q0 -115 53.5 -181.5 t155.5 -66.5q100 0 155.5 71t55.5 177q0 113 -54 182.5t-156.5 69.5t-156 -68.5t-53.5 -183.5z" />
<glyph unicode="&#xf1;" horiz-adv-x="1196" d="M137 0v1075h283v-71q90 94 252 94q201 0 299 -129t98 -363v-606h-283v582q0 139 -45 194t-137 55t-138 -55t-46 -188v-588h-283zM199 1219q0 135 64.5 214.5t170.5 79.5q61 0 101 -13t106 -50q72 -41 107 -41q53 0 69 98h184q0 -135 -64.5 -215t-170.5 -80 q-61 0 -101 13.5t-106 50.5q-72 41 -106 41q-53 0 -70 -98h-184z" />
<glyph unicode="&#xf2;" horiz-adv-x="1136" d="M82 536.5q0 245.5 137 403.5t348 158t349.5 -158t138.5 -403.5t-138.5 -402.5t-349.5 -157t-348 157t-137 402.5zM180 1546h359l178 -327h-240zM369 537q0 -129 50 -208t148 -79q96 0 148.5 83t52.5 204q0 129 -51 208.5t-149.5 79.5t-148.5 -78.5t-50 -209.5z" />
<glyph unicode="&#xf3;" horiz-adv-x="1136" d="M82 536.5q0 245.5 137 403.5t348 158t349.5 -158t138.5 -403.5t-138.5 -402.5t-349.5 -157t-348 157t-137 402.5zM369 537q0 -129 50 -208t148 -79q96 0 148.5 83t52.5 204q0 129 -51 208.5t-149.5 79.5t-148.5 -78.5t-50 -209.5zM401 1219l179 327h358l-297 -327h-240z " />
<glyph unicode="&#xf4;" horiz-adv-x="1136" d="M82 536.5q0 245.5 137 403.5t348 158t349.5 -158t138.5 -403.5t-138.5 -402.5t-349.5 -157t-348 157t-137 402.5zM174 1198l250 328h287l250 -328h-191l-205 154l-205 -154h-186zM369 537q0 -129 50 -208t148 -79q96 0 148.5 83t52.5 204q0 129 -51 208.5t-149.5 79.5 t-148.5 -78.5t-50 -209.5z" />
<glyph unicode="&#xf5;" horiz-adv-x="1136" d="M82 536.5q0 245.5 137 403.5t348 158t349.5 -158t138.5 -403.5t-138.5 -402.5t-349.5 -157t-348 157t-137 402.5zM164 1219q0 135 64.5 214.5t170.5 79.5q61 0 101.5 -13t105.5 -50q72 -41 107 -41q53 0 69 98h185q0 -135 -64.5 -215t-171.5 -80q-61 0 -101 13.5 t-106 50.5q-72 41 -106 41q-53 0 -70 -98h-184zM369 537q0 -129 50 -208t148 -79q96 0 148.5 83t52.5 204q0 129 -51 208.5t-149.5 79.5t-148.5 -78.5t-50 -209.5z" />
<glyph unicode="&#xf6;" horiz-adv-x="1136" d="M82 536.5q0 245.5 137 403.5t348 158t349.5 -158t138.5 -403.5t-138.5 -402.5t-349.5 -157t-348 157t-137 402.5zM186 1356q0 66 47.5 113t113 47t112.5 -47t47 -113q0 -63 -48 -110.5t-111.5 -47.5t-112 47t-48.5 111zM369 537q0 -129 50 -208t148 -79q96 0 148.5 83 t52.5 204q0 129 -51 208.5t-149.5 79.5t-148.5 -78.5t-50 -209.5zM629 1356q0 66 48 113t114 47q63 0 110 -47t47 -113q0 -63 -47 -110.5t-110 -47.5q-66 0 -114 47t-48 111z" />
<glyph unicode="&#xf7;" horiz-adv-x="1638" d="M41 717l346 264q31 20 55 6q28 -15 28 -46q0 -9 -3 -21l-41 -99h285v258l-95 -39q-13 -5 -25 -5q-28 0 -46 28q-14 25 4 57l270 344l264 -344q20 -33 7 -57q-17 -27 -45 -27q-11 0 -23 4l-98 39v-258h288l-41 99q-3 12 -3 21q0 31 28 46q25 14 57 -6l344 -264l-344 -271 q-35 -18 -57 -4q-28 17 -28 51q0 11 3 23l41 92h-288v-254l98 39q13 4 23 4q28 0 45 -26q14 -25 -7 -58l-264 -344l-270 344q-18 33 -4 58q18 26 46 26q12 0 25 -4l95 -39v254h-285l41 -94q4 -12 4 -23q0 -31 -29 -49q-23 -14 -55 4z" />
<glyph unicode="&#xf8;" horiz-adv-x="1136" d="M82 537q0 246 137 403.5t348 157.5q84 0 156 -27l55 107h252l-121 -230q146 -157 146 -411q0 -246 -138.5 -403t-349.5 -157q-76 0 -159 27l-56 -106h-252l123 231q-141 158 -141 408zM348 537q0 -88 21 -156l252 477q-25 6 -54 6q-106 0 -162.5 -91t-56.5 -236zM510 219 q25 -8 57 -8q106 0 163.5 96.5t57.5 229.5q0 90 -24 163z" />
<glyph unicode="&#xf9;" horiz-adv-x="1196" d="M127 469v606h283v-581q0 -139 45 -194.5t137 -55.5t138 55t46 188v588h283v-1075h-283v72q-90 -94 -252 -95q-201 0 -299 129.5t-98 362.5zM207 1546h358l178 -327h-239z" />
<glyph unicode="&#xfa;" horiz-adv-x="1196" d="M127 469v606h283v-581q0 -139 45 -194.5t137 -55.5t138 55t46 188v588h283v-1075h-283v72q-90 -94 -252 -95q-201 0 -299 129.5t-98 362.5zM428 1219l178 327h359l-297 -327h-240z" />
<glyph unicode="&#xfb;" horiz-adv-x="1196" d="M127 469v606h283v-581q0 -139 45 -194.5t137 -55.5t138 55t46 188v588h283v-1075h-283v72q-90 -94 -252 -95q-201 0 -299 129.5t-98 362.5zM201 1219l250 327h286l250 -327h-190l-205 153l-205 -153h-186z" />
<glyph unicode="&#xfc;" horiz-adv-x="1196" d="M127 469v606h283v-581q0 -139 45 -194.5t137 -55.5t138 55t46 188v588h283v-1075h-283v72q-90 -94 -252 -95q-201 0 -299 129.5t-98 362.5zM213 1376q0 66 47 113t112.5 47t112.5 -47t47 -113q0 -63 -48 -110t-111.5 -47t-111.5 47t-48 110zM655 1376q0 66 48.5 113 t113.5 47q63 0 110.5 -47t47.5 -113q0 -63 -47 -110t-111 -47q-66 0 -114 47t-48 110z" />
<glyph unicode="&#xfd;" horiz-adv-x="1208" d="M51 1075h311l177 -518q41 -119 69 -235q23 98 70 235l176 518h303l-553 -1454h-278l143 379zM436 1198l178 328h359l-297 -328h-240z" />
<glyph unicode="&#xfe;" horiz-adv-x="1150" d="M137 -395v1747l283 141v-485q102 90 227 90q184 0 301 -143.5t117 -430.5q0 -246 -110.5 -396.5t-307.5 -150.5q-135 0 -227 84v-315zM420 336q68 -92 190 -92q168 0 168 274q0 313 -184 313q-104 0 -174 -90v-405z" />
<glyph unicode="&#xff;" horiz-adv-x="1208" d="M51 1075h311l177 -518q41 -119 69 -235q23 98 70 235l176 518h303l-553 -1454h-278l143 379zM221 1356q0 66 47 113t112.5 47t113 -47t47.5 -113q0 -63 -48.5 -110.5t-112 -47.5t-111.5 47t-48 111zM664 1356q0 66 48 113t113 47q63 0 110.5 -47t47.5 -113 q0 -63 -47 -110.5t-111 -47.5q-66 0 -113.5 47t-47.5 111z" />
<glyph unicode="&#x152;" horiz-adv-x="2160" d="M109 717q0 332 166.5 535.5t455.5 203.5q227 0 344 -151v129h934v-281h-688v-248h391v-278h-391v-346h719v-281h-965v129q-113 -152 -344 -152q-289 0 -455.5 204t-166.5 536zM403 717q0 -205 81 -330t247 -125t247 125t81 330t-81 329.5t-247 124.5t-247 -124.5 t-81 -329.5z" />
<glyph unicode="&#x153;" horiz-adv-x="1761" d="M82 536.5q0 245.5 137 403.5t348 158q221 0 330 -158q127 158 324 158q209 0 330.5 -160.5t121.5 -400.5q0 -49 -4 -91h-643q6 -102 70.5 -152t150.5 -50q119 0 185 75l200 -167q-63 -82 -168.5 -128.5t-216.5 -46.5q-229 0 -352 154q-104 -154 -328 -154 q-211 0 -348 157t-137 402.5zM369 537q0 -129 50 -208t148 -79q96 0 148.5 83t52.5 204q0 129 -51 208.5t-149.5 79.5t-148.5 -78.5t-50 -209.5zM1030 659h369q-6 80 -55.5 136.5t-137.5 56.5q-74 0 -121 -54.5t-55 -138.5z" />
<glyph unicode="&#x178;" d="M45 1434h330l203 -340q96 -162 155 -281q55 113 156 281l203 340h325l-543 -867v-567h-286v561zM352 1663q0 66 47 113t113 47t113 -47t47 -113q0 -63 -48.5 -110.5t-111.5 -47.5t-111.5 47t-48.5 111zM795 1663q0 66 48 113t113 47q63 0 110.5 -47t47.5 -113 q0 -63 -47 -110.5t-111 -47.5q-66 0 -113.5 47t-47.5 111z" />
<glyph unicode="&#x2c6;" horiz-adv-x="1024" d="M119 1219l250 327h286l250 -327h-190l-205 153l-205 -153h-186z" />
<glyph unicode="&#x2dc;" horiz-adv-x="1024" d="M117 1219q0 135 64.5 214.5t170.5 79.5q61 0 101.5 -13t105.5 -50q72 -41 107 -41q53 0 69 98h185q0 -135 -64.5 -215t-171.5 -80q-61 0 -101 13.5t-106 50.5q-72 41 -106 41q-53 0 -70 -98h-184z" />
<glyph unicode="&#x2000;" horiz-adv-x="926" />
<glyph unicode="&#x2001;" horiz-adv-x="1853" />
<glyph unicode="&#x2002;" horiz-adv-x="926" />
<glyph unicode="&#x2003;" horiz-adv-x="1853" />
<glyph unicode="&#x2004;" horiz-adv-x="617" />
<glyph unicode="&#x2005;" horiz-adv-x="463" />
<glyph unicode="&#x2006;" horiz-adv-x="308" />
<glyph unicode="&#x2007;" horiz-adv-x="308" />
<glyph unicode="&#x2008;" horiz-adv-x="231" />
<glyph unicode="&#x2009;" horiz-adv-x="370" />
<glyph unicode="&#x200a;" horiz-adv-x="102" />
<glyph unicode="&#x2010;" horiz-adv-x="833" d="M123 602v283h588v-283h-588z" />
<glyph unicode="&#x2011;" horiz-adv-x="833" d="M123 602v283h588v-283h-588z" />
<glyph unicode="&#x2012;" horiz-adv-x="833" d="M123 602v283h588v-283h-588z" />
<glyph unicode="&#x2013;" horiz-adv-x="942" d="M113 612v262h716v-262h-716z" />
<glyph unicode="&#x2014;" horiz-adv-x="1269" d="M113 612v262h1044v-262h-1044z" />
<glyph unicode="&#x2018;" horiz-adv-x="575" d="M88 858l168 576h195l-29 -576h-334z" />
<glyph unicode="&#x2019;" horiz-adv-x="575" d="M125 858l29 576h333l-168 -576h-194z" />
<glyph unicode="&#x201a;" horiz-adv-x="575" d="M125 -229l29 575h333l-168 -575h-194z" />
<glyph unicode="&#x201c;" horiz-adv-x="1110" d="M88 858l168 576h195l-29 -576h-334zM623 858l168 576h194l-29 -576h-333z" />
<glyph unicode="&#x201d;" horiz-adv-x="1110" d="M125 858l29 576h333l-168 -576h-194zM659 858l29 576h334l-168 -576h-195z" />
<glyph unicode="&#x201e;" horiz-adv-x="1110" d="M125 -229l29 575h333l-168 -575h-194zM659 -229l29 575h334l-168 -575h-195z" />
<glyph unicode="&#x2022;" horiz-adv-x="1003" d="M133 749.5q0 155.5 106.5 264t262 108.5t262 -108.5t106.5 -264t-106.5 -262t-262 -106.5t-262 106.5t-106.5 262z" />
<glyph unicode="&#x2026;" horiz-adv-x="1671" d="M86 170q0 78 57.5 135t135 57t135 -57t57.5 -135t-57.5 -135.5t-135 -57.5t-135 57.5t-57.5 135.5zM643 170q0 78 57.5 135t135 57t135 -57t57.5 -135t-57.5 -135.5t-135 -57.5t-135 57.5t-57.5 135.5zM1200 170q0 78 57.5 135t135 57t135 -57t57.5 -135t-57.5 -135.5 t-135 -57.5t-135 57.5t-57.5 135.5z" />
<glyph unicode="&#x202f;" horiz-adv-x="370" />
<glyph unicode="&#x2039;" horiz-adv-x="770" d="M61 537l334 538h293l-323 -536l323 -539h-293z" />
<glyph unicode="&#x203a;" horiz-adv-x="770" d="M82 0l324 537l-324 538h293l334 -536l-334 -539h-293z" />
<glyph unicode="&#x205f;" horiz-adv-x="463" />
<glyph unicode="&#x2122;" horiz-adv-x="1699" d="M39 1266v168h596v-168h-201v-639h-194v639h-201zM770 627v807h193l174 -349q47 -90 57 -133q12 45 57 133l170 349h195v-807h-182v399q0 14 2 45t2 45q-6 -14 -19.5 -41.5t-17.5 -36.5l-211 -436l-207 436q-4 8 -35 76q4 -57 4 -88v-399h-182z" />
<glyph unicode="&#xe000;" horiz-adv-x="1075" d="M0 1075h1075v-1075h-1075v1075z" />
<glyph unicode="&#xfb01;" horiz-adv-x="1320" d="M78 809v266h129v129q0 283 307 283q104 0 178 -31v-227q-43 22 -94 22h-4q-61 0 -83 -19.5t-22 -66.5v-90h183v-266h-183v-809h-282v809h-129zM870 1325.5q0 65.5 48.5 113.5t114 48t113.5 -48t48 -113.5t-48 -114t-113.5 -48.5t-114 48.5t-48.5 114zM891 0v1075h283 v-1075h-283z" />
<glyph unicode="&#xfb02;" horiz-adv-x="1320" d="M78 809v266h129v129q0 283 307 283q104 0 178 -31v-227q-43 22 -94 22h-4q-61 0 -83 -19.5t-22 -66.5v-90h183v-266h-183v-809h-282v809h-129zM891 0v1352l283 141v-1493h-283z" />
<glyph unicode="&#xfb03;" horiz-adv-x="2091" d="M78 809v266h129v129q0 283 307 283q104 0 178 -31v-227q-43 22 -94 22h-4q-61 0 -83 -19.5t-22 -66.5v-90h183v-266h-183v-809h-282v809h-129zM835 809v266h129v129q0 283 307 283q104 0 178 -31v-227q-43 22 -94 22h-4q-61 0 -83 -19.5t-22 -66.5v-90h183v-266h-183 v-809h-282v809h-129zM1641 1325.5q0 65.5 48 113.5t113.5 48t114 -48t48.5 -113.5t-48.5 -114t-114 -48.5t-113.5 48.5t-48 114zM1661 0v1075h283v-1075h-283z" />
<glyph unicode="&#xfb04;" horiz-adv-x="2091" d="M78 809v266h129v129q0 283 307 283q104 0 178 -31v-227q-43 22 -94 22h-4q-61 0 -83 -19.5t-22 -66.5v-90h183v-266h-183v-809h-282v809h-129zM835 809v266h129v129q0 283 307 283q104 0 178 -31v-227q-43 22 -94 22h-4q-61 0 -83 -19.5t-22 -66.5v-90h183v-266h-183 v-809h-282v809h-129zM1661 0v1352l283 141v-1493h-283z" />
</font>
</defs>
</svg>
